<?xml version="1.0" encoding="UTF-8" standalone="no"?>
<svg
   xmlns:dc="http://purl.org/dc/elements/1.1/"
   xmlns:cc="http://creativecommons.org/ns#"
   xmlns:rdf="http://www.w3.org/1999/02/22-rdf-syntax-ns#"
   xmlns:svg="http://www.w3.org/2000/svg"
   xmlns="http://www.w3.org/2000/svg"
   id="svg8"
   version="1.1"
   viewBox="0 0 13.229166 13.229167"
   height="50"
   width="50">
  <defs
     id="defs2" />
  <metadata
     id="metadata5">
    <rdf:RDF>
      <cc:Work
         rdf:about="">
        <dc:format>image/svg+xml</dc:format>
        <dc:type
           rdf:resource="http://purl.org/dc/dcmitype/StillImage" />
        <dc:title></dc:title>
      </cc:Work>
    </rdf:RDF>
  </metadata>
  <g
     id="layer1">
    <g
       transform="matrix(0.22813749,0,0,0.22813749,0.91114608,0.91114608)"
       id="g844"
       style="fill:#03fce7">
      <path
         d="M 20,3 C 18.355469,3 17,4.355469 17,6 V 9 H 3 C 1.347656,9 0,10.347656 0,12 v 13 c 0,1.652344 1.347656,3 3,3 h 44 c 1.652344,0 3,-1.347656 3,-3 V 12 C 50,10.347656 48.652344,9 47,9 H 33 V 6 C 33,4.355469 31.644531,3 30,3 Z m 0,2 h 10 c 0.5625,0 1,0.4375 1,1 V 9 H 19 V 6 c 0,-0.5625 0.4375,-1 1,-1 z m 5,17 c 1.105469,0 2,0.894531 2,2 0,1.105469 -0.894531,2 -2,2 -1.105469,0 -2,-0.894531 -2,-2 0,-1.105469 0.894531,-2 2,-2 z M 0,27 v 17 c 0,1.652344 1.347656,3 3,3 h 44 c 1.652344,0 3,-1.347656 3,-3 V 27 c 0,1.652344 -1.347656,3 -3,3 H 3 C 1.347656,30 0,28.652344 0,27 Z"
         id="path833" />
    </g>
  </g>
</svg>
