<?xml version="1.0" encoding="UTF-8" standalone="no"?>
<svg
   xmlns:dc="http://purl.org/dc/elements/1.1/"
   xmlns:cc="http://creativecommons.org/ns#"
   xmlns:rdf="http://www.w3.org/1999/02/22-rdf-syntax-ns#"
   xmlns:svg="http://www.w3.org/2000/svg"
   xmlns="http://www.w3.org/2000/svg"
   width="50"
   height="50"
   viewBox="0 0 13.229166 13.229167"
   version="1.1"
   id="svg8">
  <defs
     id="defs2" />
  <metadata
     id="metadata5">
    <rdf:RDF>
      <cc:Work
         rdf:about="">
        <dc:format>image/svg+xml</dc:format>
        <dc:type
           rdf:resource="http://purl.org/dc/dcmitype/StillImage" />
        <dc:title></dc:title>
      </cc:Work>
    </rdf:RDF>
  </metadata>
  <g
     transform="matrix(0.25309865,0,0,0.25309865,0.287117,0.2876113)"
     id="g4554"
     style="fill:#03fce7">
    <path
       d="m 47.390625,10.242188 -0.507812,-1.539063 -8.125,8.121094 -3.988282,-1.59375 -1.59375,-3.992188 8.121094,-8.125 -1.539062,-0.507812 C 38.53125,2.203125 37.269531,2 36,2 29.382813,2 24,7.382813 24,14 c 0,1.480469 0.269531,2.925781 0.808594,4.308594 L 3.425781,39.6875 C 2.507813,40.605469 2,41.828125 2,43.132813 c 0,1.300781 0.507813,2.519531 1.425781,3.441406 0.949219,0.949219 2.195313,1.421875 3.441407,1.421875 1.25,0 2.496093,-0.472656 3.445312,-1.421875 L 31.691406,25.195313 C 33.074219,25.730469 34.519531,26 36,26 c 6.617188,0 12,-5.382812 12,-12 0,-1.269531 -0.203125,-2.53125 -0.609375,-3.757812 z"
       id="path4543" />
  </g>
</svg>
