<?xml version="1.0" encoding="UTF-8" standalone="no"?>
<svg
   xmlns:dc="http://purl.org/dc/elements/1.1/"
   xmlns:cc="http://creativecommons.org/ns#"
   xmlns:rdf="http://www.w3.org/1999/02/22-rdf-syntax-ns#"
   xmlns:svg="http://www.w3.org/2000/svg"
   xmlns="http://www.w3.org/2000/svg"
   id="svg8"
   version="1.1"
   viewBox="0 0 13.229166 13.229167"
   height="50"
   width="50">
  <defs
     id="defs2" />
  <metadata
     id="metadata5">
    <rdf:RDF>
      <cc:Work
         rdf:about="">
        <dc:format>image/svg+xml</dc:format>
        <dc:type
           rdf:resource="http://purl.org/dc/dcmitype/StillImage" />
        <dc:title></dc:title>
      </cc:Work>
    </rdf:RDF>
  </metadata>
  <g
     id="layer1">
    <g
       transform="matrix(0.4354081,0,0,0.4354081,1.4954375,1.3896861)"
       id="g2811"
       style="fill:#03fce7">
      <path
         style="stroke-width:1.75183"
         d="m 2.5826036,-0.24041298 c -1.4438938,0 -2.62774904,1.18385527 -2.62774904,2.62774908 V 21.612664 c 0,1.443894 1.18385524,2.627749 2.62774904,2.627749 H 20.931639 c 1.443895,0 2.627749,-1.183855 2.627749,-2.627749 V 2.3873361 c 0,-1.44389381 -1.183854,-2.62774908 -2.627749,-2.62774908 z M 2.3499846,0.99965789 H 21.224408 c 0.492703,0 1.048386,0.55568221 1.048386,1.04838511 v 19.857389 c 0,0.492703 -0.555683,1.048386 -1.048386,1.048386 H 2.3267227 c -0.492703,0 -1.0852735,-0.615832 -1.0852735,-1.108535 V 2.1081933 c 0,-0.492703 0.6158325,-1.10853541 1.1085354,-1.10853541 z"
         id="path2813" />
      <path
         style="stroke-width:0.814864"
         d="M 4.6212516,5.8885192 A 1.2222962,1.2222962 0 0 0 3.3989554,7.1108154 1.2222962,1.2222962 0 0 0 4.6212516,8.3331117 1.2222962,1.2222962 0 0 0 5.8435477,7.1108154 1.2222962,1.2222962 0 0 0 4.6212516,5.8885192 Z m 4.0743211,0.4074321 a 0.81494564,0.81494564 0 1 0 0,1.6297283 H 19.288806 a 0.81494564,0.81494564 0 1 0 0,-1.6297283 z M 4.6212516,10.777704 A 1.2222962,1.2222962 0 0 0 3.3989554,12 1.2222962,1.2222962 0 0 0 4.6212516,13.222296 1.2222962,1.2222962 0 0 0 5.8435477,12 1.2222962,1.2222962 0 0 0 4.6212516,10.777704 Z m 4.0743211,0.407432 a 0.81494564,0.81494564 0 1 0 0,1.629728 H 19.288806 a 0.81494564,0.81494564 0 1 0 0,-1.629728 z m -4.0743211,4.481753 a 1.2222962,1.2222962 0 0 0 -1.2222962,1.222296 1.2222962,1.2222962 0 0 0 1.2222962,1.222296 1.2222962,1.2222962 0 0 0 1.2222961,-1.222296 1.2222962,1.2222962 0 0 0 -1.2222961,-1.222296 z m 4.0743211,0.407432 a 0.81494564,0.81494564 0 1 0 0,1.629728 H 19.288806 a 0.81494564,0.81494564 0 1 0 0,-1.629728 z"
         id="path2800" />
    </g>
  </g>
</svg>
