<?xml version="1.0" encoding="UTF-8" standalone="no"?>
<svg
   xmlns:dc="http://purl.org/dc/elements/1.1/"
   xmlns:cc="http://creativecommons.org/ns#"
   xmlns:rdf="http://www.w3.org/1999/02/22-rdf-syntax-ns#"
   xmlns:svg="http://www.w3.org/2000/svg"
   xmlns="http://www.w3.org/2000/svg"
   width="50"
   height="50"
   viewBox="0 0 13.229166 13.229167"
   version="1.1"
   id="svg8">
  <defs
     id="defs2" />
  <metadata
     id="metadata5">
    <rdf:RDF>
      <cc:Work
         rdf:about="">
        <dc:format>image/svg+xml</dc:format>
        <dc:type
           rdf:resource="http://purl.org/dc/dcmitype/StillImage" />
        <dc:title></dc:title>
      </cc:Work>
    </rdf:RDF>
  </metadata>
  <g
     id="layer1">
    <g
       id="g942"
       transform="matrix(0.27973678,0,0,0.27973678,-0.09909939,-0.09909939)">
      <path
         id="path907"
         d="m 16,6 h -2 v 32 c 0,1.657 1.343,3 3,3 h 9 v -2 h -9 c -0.552,0 -1,-0.448 -1,-1 V 25 H 26 V 23 H 16 Z"
         fill="#00baaa" />
      <path
         id="path914"
         d="M 22,3 H 8 C 7.448,3 7,3.448 7,4 v 8 c 0,0.552 0.448,1 1,1 h 14 c 0.552,0 1,-0.448 1,-1 V 4 C 23,3.448 22.552,3 22,3 Z"
         fill="#03fce7" />
      <path
         id="path921"
         d="M 40,19 H 26 c -0.552,0 -1,0.448 -1,1 v 8 c 0,0.552 0.448,1 1,1 h 14 c 0.552,0 1,-0.448 1,-1 v -8 c 0,-0.552 -0.448,-1 -1,-1 z"
         fill="#03fce7" />
      <path
         id="path928"
         d="M 40,35 H 26 c -0.552,0 -1,0.448 -1,1 v 8 c 0,0.552 0.448,1 1,1 h 14 c 0.552,0 1,-0.448 1,-1 v -8 c 0,-0.552 -0.448,-1 -1,-1 z"
         fill="#03fce7" />
    </g>
  </g>
</svg>
